<svg id="visual" viewBox="0 0 900 600" width="900" height="600" xmlns="http://www.w3.org/2000/svg" xmlns:xlink="http://www.w3.org/1999/xlink" version="1.1"><rect width="900" height="600" fill="#eef4f7"></rect><g><g transform="translate(294 308)"><path d="M0 -85.9L74.4 -42.9L74.4 42.9L0 85.9L-74.4 42.9L-74.4 -42.9Z" fill="none" stroke="#0838a5" stroke-width="2"></path></g><g transform="translate(655 353)"><path d="M0 -76L65.8 -38L65.8 38L0 76L-65.8 38L-65.8 -38Z" fill="none" stroke="#0838a5" stroke-width="2"></path></g><g transform="translate(52 584)"><path d="M0 -80L69.3 -40L69.3 40L0 80L-69.3 40L-69.3 -40Z" fill="none" stroke="#0838a5" stroke-width="2"></path></g><g transform="translate(207 501)"><path d="M0 -83L71.9 -41.5L71.9 41.5L0 83L-71.9 41.5L-71.9 -41.5Z" fill="none" stroke="#0838a5" stroke-width="2"></path></g><g transform="translate(15 236)"><path d="M0 -76L65.8 -38L65.8 38L0 76L-65.8 38L-65.8 -38Z" fill="none" stroke="#0838a5" stroke-width="2"></path></g><g transform="translate(466 534)"><path d="M0 -84L72.7 -42L72.7 42L0 84L-72.7 42L-72.7 -42Z" fill="none" stroke="#0838a5" stroke-width="2"></path></g><g transform="translate(852 135)"><path d="M0 -80L69.3 -40L69.3 40L0 80L-69.3 40L-69.3 -40Z" stroke="#0838a5" fill="none" stroke-width="2"></path></g><g transform="translate(204 7)"><path d="M0 -79L68.4 -39.5L68.4 39.5L0 79L-68.4 39.5L-68.4 -39.5Z" stroke="#0838a5" fill="none" stroke-width="2"></path></g><g transform="translate(526 13)"><path d="M0 -84L72.7 -42L72.7 42L0 84L-72.7 42L-72.7 -42Z" stroke="#0838a5" fill="none" stroke-width="2"></path></g><g transform="translate(820 469)"><path d="M0 -78L67.5 -39L67.5 39L0 78L-67.5 39L-67.5 -39Z" stroke="#0838a5" fill="none" stroke-width="2"></path></g><g transform="translate(533 229)"><path d="M0 -77L66.7 -38.5L66.7 38.5L0 77L-66.7 38.5L-66.7 -38.5Z" stroke="#0838a5" fill="none" stroke-width="2"></path></g></g></svg>